<?xml version="1.0" encoding="UTF-8"?>
<svg width="32px" height="32px" viewBox="0 0 32 32" version="1.1" xmlns="http://www.w3.org/2000/svg" xmlns:xlink="http://www.w3.org/1999/xlink">
    <title>Icon</title>
    <g id="Page-1" stroke="none" stroke-width="1" fill="none" fill-rule="evenodd">
        <path d="M27,-3.55271368e-15 C29.7614237,-4.4408921e-15 32,2.23857625 32,5 L32,27 C32,29.7614237 29.7614237,32 27,32 L5,32 C2.23857625,32 0,29.7614237 0,27 L0,5 C0,2.23857625 2.23857625,-3.55271368e-15 5,-3.55271368e-15 L27,-3.55271368e-15 Z M15.9594727,26.8920898 C15.4874674,26.8920898 15.0846354,27.0548503 14.7509766,27.3803711 C14.4173177,27.7058919 14.2504883,28.1005859 14.2504883,28.5644531 C14.2504883,29.0201823 14.4173177,29.4128418 14.7509766,29.7424316 C15.0846354,30.0720215 15.4874674,30.2368164 15.9594727,30.2368164 C16.4396159,30.2368164 16.8444824,30.0720215 17.1740723,29.7424316 C17.5036621,29.4128418 17.668457,29.0201823 17.668457,28.5644531 C17.668457,28.1005859 17.5036621,27.7058919 17.1740723,27.3803711 C16.8444824,27.0548503 16.4396159,26.8920898 15.9594727,26.8920898 Z M17.7294922,7.38525391 L14.1894531,7.38525391 L7.90283203,25 L11.1987305,25 L12.685,20.447 L19.237,20.447 L20.7202148,25 L24.0161133,25 L17.7294922,7.38525391 Z M15.9228516,10.534668 L16.008,10.535 L18.446,18.018 L13.478,18.018 L15.9228516,10.534668 Z M17.253418,2.02636719 L14.6533203,2.02636719 L11.8823242,5.90820312 L14.2138672,5.90820312 L15.937,3.429 L17.7050781,5.90820312 L20.0366211,5.90820312 L17.253418,2.02636719 Z" id="Combined-Shape" fill="#000000"></path>
    </g>
</svg>